<?xml version="1.0" standalone="no"?>
<!DOCTYPE svg PUBLIC "-//W3C//DTD SVG 20010904//EN"
 "http://www.w3.org/TR/2001/REC-SVG-20010904/DTD/svg10.dtd">
<svg version="1.0" xmlns="http://www.w3.org/2000/svg"
 width="145.000000pt" height="145.000000pt" viewBox="0 0 145.000000 145.000000"
 preserveAspectRatio="xMidYMid meet">
<metadata>
Created by potrace 1.11, written by Peter Selinger 2001-2013
</metadata>
<g transform="translate(0.000000,145.000000) scale(0.100000,-0.100000)"
fill="#000000" stroke="none">
<path d="M766 1383 c-9 -32 -47 -152 -85 -268 l-68 -210 -289 -5 -289 -5 210
-151 c116 -84 220 -160 233 -170 l22 -19 -88 -268 c-49 -147 -85 -267 -80
-267 8 0 407 287 418 301 3 3 14 10 24 16 19 10 44 -4 141 -80 62 -48 255
-185 255 -181 0 3 -85 92 -189 197 l-190 191 -48 -34 c-26 -19 -90 -65 -141
-103 -51 -38 -94 -68 -96 -66 -2 2 20 78 50 169 29 91 49 168 46 171 -4 3 -56
41 -117 84 -60 44 -122 89 -137 101 l-27 22 177 -1 c143 -1 177 2 184 14 4 8
29 83 56 168 27 84 52 149 55 144 4 -6 27 -75 52 -154 26 -79 48 -150 50 -156
5 -16 18 -16 102 1 37 8 86 17 108 21 22 4 45 8 50 9 6 1 57 11 115 22 l105
19 -204 5 -205 5 -41 130 c-86 273 -130 405 -136 405 -4 0 -14 -26 -23 -57z"/>
<path d="M756 845 l-29 -94 -106 -3 -106 -3 83 -60 c45 -33 82 -63 82 -68 0
-4 -14 -49 -30 -99 -17 -50 -29 -92 -28 -94 2 -1 39 24 83 57 44 32 83 59 87
59 4 0 40 -25 80 -55 79 -60 89 -64 83 -38 -4 20 -39 127 -50 156 -6 15 28 34
226 131 129 62 241 115 249 119 37 14 -27 5 -132 -18 -62 -14 -144 -33 -183
-41 -38 -8 -98 -22 -133 -30 -35 -8 -66 -12 -70 -10 -4 3 -21 45 -37 95 -16
50 -31 91 -34 91 -4 0 -19 -43 -35 -95z"/>
</g>
</svg>
